<?xml version="1.0" standalone="no"?>
<!DOCTYPE svg PUBLIC "-//W3C//DTD SVG 20010904//EN"
 "http://www.w3.org/TR/2001/REC-SVG-20010904/DTD/svg10.dtd">
<svg version="1.0" xmlns="http://www.w3.org/2000/svg"
 width="256.000000pt" height="256.000000pt" viewBox="0 0 256.000000 256.000000"
 preserveAspectRatio="xMidYMid meet">
<metadata>
Created by potrace 1.11, written by Peter Selinger 2001-2013
</metadata>
<g transform="translate(0.000000,256.000000) scale(0.100000,-0.100000)"
fill="#000000" stroke="none">
<path d="M1180 2531 c-14 -4 -41 -6 -62 -6 -20 0 -34 -4 -31 -9 3 -5 -6 -7
-21 -4 -14 3 -29 1 -32 -4 -3 -4 -9 -6 -14 -3 -5 3 -12 0 -16 -6 -4 -8 -9 -7
-15 2 -7 11 -9 11 -9 1 0 -7 -4 -11 -9 -7 -5 3 -12 1 -16 -4 -3 -6 -12 -8 -20
-4 -8 3 -15 1 -15 -5 0 -5 -13 -9 -29 -8 -16 1 -29 -3 -28 -8 1 -6 -6 -10 -15
-10 -10 1 -18 -3 -18 -8 0 -6 -7 -8 -15 -4 -8 3 -15 1 -15 -5 0 -6 -7 -8 -16
-5 -8 3 -12 2 -9 -4 3 -6 -3 -10 -14 -10 -12 0 -21 -5 -21 -11 0 -5 -4 -8 -9
-4 -5 3 -12 1 -16 -5 -4 -6 -11 -8 -16 -5 -5 4 -9 1 -9 -5 0 -6 -14 -16 -30
-21 -16 -6 -30 -15 -30 -21 0 -5 -4 -6 -10 -3 -5 3 -10 2 -10 -4 0 -6 -11 -13
-25 -17 -14 -3 -23 -9 -20 -14 2 -4 -13 -16 -34 -26 -22 -10 -37 -22 -35 -26
3 -5 1 -8 -5 -8 -6 0 -33 -22 -60 -49 -27 -27 -53 -46 -56 -42 -4 3 -5 1 -3
-4 2 -6 -9 -23 -25 -38 -15 -15 -27 -32 -27 -38 0 -6 -4 -7 -10 -4 -5 3 -10
-1 -10 -9 0 -8 -8 -20 -17 -25 -10 -6 -13 -11 -8 -11 6 0 6 -3 -1 -8 -5 -4
-20 -24 -33 -45 -13 -20 -27 -34 -33 -31 -7 4 -8 2 -4 -4 4 -6 -1 -23 -10 -37
-9 -14 -13 -25 -9 -25 4 0 -3 -9 -16 -20 -13 -10 -20 -19 -16 -20 4 0 2 -10
-5 -22 -7 -13 -11 -26 -10 -30 1 -5 -3 -8 -8 -8 -5 0 -9 -3 -8 -7 3 -16 -15
-63 -24 -63 -5 0 -7 -4 -4 -9 4 -5 1 -22 -5 -38 -13 -30 -18 -46 -24 -78 -2
-11 -8 -37 -14 -57 -5 -21 -7 -38 -4 -38 3 0 -1 -8 -8 -17 -12 -14 -12 -16 0
-8 11 6 12 5 5 -6 -10 -16 -15 -64 -16 -166 0 -52 -3 -71 -12 -66 -7 5 -7 2 1
-8 7 -8 14 -35 15 -59 2 -25 7 -50 11 -57 4 -6 3 -14 -2 -17 -6 -4 -4 -17 4
-32 7 -15 12 -35 10 -45 -2 -11 0 -19 5 -19 5 0 9 -8 9 -18 0 -19 4 -39 15
-64 4 -9 9 -22 10 -30 2 -7 8 -24 13 -38 6 -14 8 -31 5 -39 -3 -8 -1 -12 5 -8
6 4 16 -11 23 -33 7 -22 17 -40 22 -40 4 0 8 -7 8 -15 0 -16 28 -65 44 -76 5
-4 5 -12 2 -18 -4 -6 -4 -10 1 -9 4 2 9 -1 10 -6 1 -5 5 -12 10 -15 5 -3 24
-28 42 -54 18 -27 39 -51 47 -54 8 -3 11 -9 8 -14 -3 -5 -1 -9 5 -9 5 0 13 -9
16 -20 4 -11 10 -18 14 -16 9 6 42 -30 35 -37 -3 -3 7 -8 23 -11 21 -6 24 -9
12 -17 -12 -7 -11 -9 3 -9 9 0 26 -12 38 -27 12 -16 23 -26 25 -23 2 3 15 -5
29 -17 14 -13 26 -20 26 -15 0 4 5 -1 11 -10 5 -10 16 -18 24 -18 8 0 23 -10
35 -22 11 -12 20 -19 20 -15 0 4 19 -5 42 -19 22 -14 46 -27 52 -29 6 -1 28
-9 48 -19 21 -9 42 -16 48 -16 5 0 10 -4 10 -8 0 -4 12 -9 26 -10 15 -1 34 -8
42 -15 13 -10 14 -9 7 3 -7 12 -5 12 11 -1 10 -9 25 -14 32 -12 6 3 12 1 12
-4 0 -4 10 -9 23 -9 44 -3 92 -10 102 -15 6 -3 33 -7 60 -9 148 -7 185 -7 185
4 0 6 5 4 10 -4 5 -8 10 -10 10 -5 0 6 23 10 50 10 28 0 50 2 50 5 0 4 12 7
28 8 25 1 67 8 67 12 0 1 11 4 25 7 38 7 55 11 58 13 1 2 7 4 12 5 6 1 13 4
18 5 4 1 10 2 15 1 4 0 7 3 7 9 0 5 7 7 15 4 8 -4 15 -1 15 6 0 6 4 9 9 5 5
-3 13 0 16 6 4 5 13 8 20 5 7 -2 16 2 19 11 4 9 9 13 12 10 3 -3 33 11 67 30
34 20 67 36 74 36 7 0 10 3 8 7 -2 4 8 13 23 21 15 7 37 24 48 36 12 12 24 20
26 18 2 -3 46 36 97 85 51 50 90 90 86 90 -3 0 10 16 30 37 19 20 35 39 35 43
0 4 9 17 20 30 11 13 20 29 20 35 0 7 7 16 16 19 8 3 12 10 9 16 -3 5 -1 10 5
10 6 0 8 5 5 10 -3 6 -1 10 4 10 6 0 11 3 10 8 -3 18 14 51 24 45 6 -4 8 0 4
10 -3 10 -2 17 4 17 6 0 7 5 4 10 -3 6 -1 10 5 10 6 0 8 5 4 11 -3 6 -2 14 4
18 5 3 12 15 14 26 1 11 6 23 10 26 5 3 9 17 10 32 1 15 5 27 9 27 3 0 6 6 6
13 1 22 8 42 18 49 6 5 5 8 -3 8 -10 0 -10 5 -1 21 12 24 19 56 22 111 1 21 5
38 10 38 4 0 3 9 -3 20 -6 11 -7 20 -2 20 4 0 7 39 5 88 -4 125 -7 155 -17
171 -7 11 -6 12 5 6 11 -7 12 -6 3 6 -6 8 -11 27 -12 42 -1 15 -6 36 -12 47
-7 13 -6 20 3 23 9 4 9 6 0 6 -7 1 -13 9 -13 19 0 10 -3 22 -7 26 -7 7 -14 31
-16 59 -1 9 -5 17 -9 17 -4 0 -8 6 -8 13 0 7 -9 32 -20 55 -11 22 -20 48 -20
57 0 8 -4 15 -9 15 -5 0 -19 22 -32 50 -12 27 -26 47 -31 44 -7 -5 -13 18 -9
39 1 5 -3 6 -9 2 -5 -3 -10 0 -10 7 0 8 -9 20 -20 28 -11 8 -20 18 -20 23 0
15 -37 57 -44 50 -3 -3 -6 -1 -6 6 0 17 -86 102 -94 93 -4 -3 -4 2 0 12 5 13
3 17 -6 14 -14 -4 -57 32 -53 44 2 5 -4 8 -12 8 -9 0 -18 7 -21 15 -4 8 -9 13
-14 10 -4 -2 -16 3 -27 13 -25 22 -52 40 -80 52 -13 5 -23 14 -23 20 0 5 -3 9
-7 8 -15 -5 -73 24 -67 33 3 5 -1 6 -9 3 -8 -3 -30 4 -50 15 -19 11 -37 18
-40 15 -2 -2 -17 2 -32 10 -16 8 -32 13 -37 10 -4 -3 -8 0 -8 6 0 7 -6 10 -12
7 -7 -2 -22 3 -32 12 -14 11 -17 12 -11 2 6 -11 4 -13 -11 -7 -10 5 -25 9 -31
9 -7 0 -13 3 -13 7 0 4 -10 6 -22 5 -13 -1 -29 3 -37 9 -12 9 -13 8 -6 -4 7
-12 6 -13 -6 -4 -8 5 -21 10 -29 9 -8 -1 -25 2 -37 7 -14 4 -23 4 -23 -3 0 -6
-6 -7 -12 -2 -19 11 -138 10 -138 -2 0 -6 -3 -6 -8 1 -4 6 -18 8 -32 5z"/>
</g>
</svg>
